<mxfile host="app.diagrams.net" modified="2024-05-15T09:30:55.216Z" agent="Mozilla/5.0 (Macintosh; Intel Mac OS X 10_15_7) AppleWebKit/537.36 (KHTML, like Gecko) Chrome/124.0.0.0 Safari/537.36" version="24.4.0" etag="7QHA9DAJ73XVr6NcnpoH" type="github">
  <diagram name="第 1 页" id="JSvqFtaMYM3m86y_Kz-t">
    <mxGraphModel>
      <root>
        <mxCell id="0" />
        <mxCell id="1" parent="0" />
      </root>
    </mxGraphModel>
  </diagram>
</mxfile>
